:020000040000FA
:100000000C9461000C947E000C947E000C947E0095
:100010000C947E000C947E000C947E000C947E0068
:100020000C947E000C947E000C947E000C947E0058
:100030000C947E000C947E000C947E000C947E0048
:100040000C9457010C947E000C947E000C947E005E
:100050000C947E000C947E000C947E000C947E0028
:100060000C947E000C947E00000000002400270009
:100070002A0000000000250028002B0000000000DE
:1000800023002600290004040404040404040202DA
:100090000202020203030303030301020408102007
:1000A0004080010204081020010204081020000012
:1000B0000008000201000003040700000000000027
:1000C000000011241FBECFEFD8E0DEBFCDBF11E08E
:1000D000A0E0B1E0E2E4F9E002C005900D92A233A5
:1000E000B107D9F723E0A2E3B1E001C01D92AC3320
:1000F000B207E1F70E94A1010C949F040C94000048
:10010000833081F028F4813099F08230A9F008958D
:100110008730A9F08830C9F08430B1F48091800034
:100120008F7D03C0809180008F7780938000089539
:1001300084B58F7784BD089584B58F7DFBCF809182
:10014000B0008F778093B00008958091B0008F7DCC
:10015000F9CFCF93DF93E0EBF0E08491ECE9F0E0AE
:10016000D491E8E8F0E0C491CC23A1F081110E9481
:100170008000EC2FF0E0EE0FFF1FE458FF4FA59139
:10018000B491EC91ED2381E090E009F480E0DF91FF
:10019000CF91089580E090E0FACF1F93CF93DF9343
:1001A000282F30E0F901E255FF4F8491F901E6561E
:1001B000FF4FD491F901EA57FF4FC491CC23A9F026
:1001C000162F81110E948000EC2FF0E0EE0FFF1F30
:1001D000EE58FF4FA591B4918FB7F894EC9111119F
:1001E00008C0D095DE23DC938FBFDF91CF911F91A4
:1001F0000895DE2BF8CFCF93DF9390E0FC01E65615
:10020000FF4F24918A579F4FFC0184918823D1F09E
:1002100090E0880F991FFC01E859FF4FA591B49118
:10022000FC01EE58FF4FC591D49161110EC09FB7EC
:10023000F8948C91E22FE0958E238C932881E22311
:10024000E8839FBFDF91CF9108958FB7F894EC9129
:10025000E22BEC938FBFF6CF8EBD00000DB407FEEE
:10026000FDCF8EB508951F93CF93DF93182FEB0129
:100270000E94A900892BE1F360E086E00E94CD0096
:1002800082E00E942C01812F0E942C018D2F0E9460
:100290002C018C2F0E942C010E94A900892BE1F3D4
:1002A00061E086E0DF91CF911F910C94CD001F9209
:1002B0000F920FB60F9211242F933F938F939F931A
:1002C000AF93BF938091380390913903A0913A0383
:1002D000B0913B033091370323E0230F2D3758F5BE
:1002E0000196A11DB11D209337038093380390938D
:1002F0003903A0933A03B0933B0380913303909169
:100300003403A0913503B09136030196A11DB11DB0
:100310008093330390933403A0933503B093360353
:10032000BF91AF919F918F913F912F910F900FBEF1
:100330000F901F90189526E8230F0296A11DB11D5E
:10034000D2CF789484B5826084BD84B5816084BD49
:1003500085B5826085BD85B5816085BD80916E0063
:10036000816080936E001092810080918100826094
:1003700080938100809181008160809381008091D1
:1003800080008160809380008091B10084608093C0
:10039000B1008091B00081608093B00080917A00BC
:1003A000846080937A0080917A00826080937A00E2
:1003B00080917A00816080937A0080917A008068D1
:1003C00080937A001092C10061E088E00E94FB00F7
:1003D00060E082E00E94FB0061E086E00E94FB009A
:1003E00061E087E00E94FB00CFB7F8948091320172
:1003F000811127C0E0E9F0E08491E4EAF0E0949113
:10040000E82FF0E0EE0FFF1FE859FF4FA591B491E0
:10041000EC91E92321F461E08AE00E94CD0061E0E3
:100420008AE00E94FB008CB580618CBD8CB5806435
:100430008CBD61E08DE00E94FB0061E08BE00E94DA
:10044000FB00809132018F5F80933201CFBF8CB56A
:100450008C7F81608CBD8DB58E7F8DBD8FEF0E94AE
:100460002C0161E088E00E94CD0061E086E00E94FE
:10047000CD0061E087E00E94CD0068EE7BE883E07C
:100480000E9433016FE37FE38BE00E9433018CB560
:100490008C7F8CBD8DB58E7F8DBDC4E0D1E0A9E28F
:1004A000EA2EA1E0FA2EEC16FD0689F019910E94C1
:1004B000A900892BE1F360E087E00E94CD00812F45
:1004C0000E942C0161E087E00E94CD00ECCF03E3A5
:1004D00012E0C3E3D1E00E940404817089930C17F9
:1004E0001D07C9F703E312E0E12CFF24F394C0E4F5
:1004F000D0E0F0E0CF2EF0E0DF2EF801C70111923E
:100500000197E9F7A3E3B2E023E331E090E080E074
:10051000F90161919F01AC0141505F4F55274D5C3E
:100520005E4FFA01408150E0440F551FFA01E60F7B
:10053000F11D6E2F660F0196AC0155274D5C5E4F85
:10054000FA014081E62FE40FF0E0E75DFE4F4081C5
:100550004D938115F1E09F07D9F680E0E3E3F2E0E7
:10056000A3E3B1E001900D928A95E1F70E94A90002
:10057000892BE1F360E087E00E94CD008EE50E94C8
:100580002C0180E80E942C018CE40E942C0184E163
:100590000E942C0182E60E942C0189E90E942C0114
:1005A00081E20E942C010E940404BE010E94770493
:1005B000805D0E942C0180913301882389F080E0C6
:1005C0000E942C0189E90E942C0183E20E942C01E7
:1005D0000E940404BE010E947704805D0E942C01E9
:1005E00080913401882389F080E00E942C0189E900
:1005F0000E942C0184E20E942C010E940404BE018E
:100600000E947704805D0E942C018091350188232F
:1006100089F080E00E942C0189E90E942C0185E28A
:100620000E942C010E940404BE010E947704805D98
:100630000E942C0180913601882389F080E00E947D
:100640002C0189E90E942C0186E20E942C010E9463
:100650000404BE010E947704805D0E942C018091F9
:100660003701882389F080E00E942C0189E90E94EB
:100670002C0187E20E942C010E940404BE010E940A
:100680007704805D0E942C0180913801882389F0D5
:1006900080E00E942C0189E90E942C0188E20E94DE
:1006A0002C010E940404BE010E947704805D0E9418
:1006B0002C0180913901882389F080E00E942C016F
:1006C00089E90E942C0189E20E942C010E94040405
:1006D000BE010E947704805D0E942C0180913A0146
:1006E000882389F080E00E942C0189E90E942C0176
:1006F0008AE20E942C010E940404BE010E94770439
:10070000805D0E942C0180913B01882389F080E06C
:100710000E942C0189E90E942C0186E30E942C0191
:100720000E940404BE010E947704805D0E942C0197
:1007300080913C01882389F080E00E942C0189E9A6
:100740000E942C018CE30E942C010E940404BE0133
:100750000E947704805D0E942C0161E087E00E9486
:10076000CD00C114D10409F4C8CE0E940000C5CE4A
:100770008F929F92AF92BF92CF92DF92EF92FF92B1
:10078000CF93DF93EC01688179818A819B81611528
:1007900071058105910521F464E279ED8BE597E01F
:1007A0002DE133EF41E050E00E94140449015A0169
:1007B0009B01AC01A7EAB1E40E9433046B017C0108
:1007C000ACEEB4EFA50194010E944104DC01CB0121
:1007D0008C0D9D1DAE1DBF1DB7FF03C00197A10964
:1007E000B04888839983AA83BB839F77DF91CF9199
:1007F000FF90EF90DF90CF90BF90AF909F908F9041
:1008000008950E94B803089580E091E00E94B80323
:100810000895B0E0A0E08093000190930101A093BF
:100820000201B09303010895052E97FB1EF4009476
:100830000E942B0457FD07D00E94460407FC03D0FA
:100840004EF40C942B0450954095309521953F4FD4
:100850004F4F5F4F089590958095709561957F4FAC
:100860008F4F9F4F08950E946804A59F900DB49FDD
:10087000900DA49F800D911D11240895B7FF0C9435
:1008800033040E943304821B930B0895A1E21A2EB5
:10089000AA1BBB1BFD010DC0AA1FBB1FEE1FFF1F24
:1008A000A217B307E407F50720F0A21BB30BE40B74
:1008B000F50B661F771F881F991F1A9469F76095BB
:1008C0007095809590959B01AC01BD01CF01089575
:1008D000A29FB001B39FC001A39F700D811D112481
:1008E000911DB29F700D811D1124911D089597FBDC
:1008F000072E16F4009407D077FD09D00E948B04D0
:1009000007FC05D03EF4909581959F4F0895709512
:1009100061957F4F0895AA1BBB1B51E107C0AA1F19
:10092000BB1FA617B70710F0A61BB70B881F991F90
:100930005A95A9F780959095BC01CD010895F8943A
:10094000FFCF010000004D54686400000006000065
:10095000000101E04D54726B000002C300FF51031F
:1009600007A12000FF58040402080800010101014A
:040970000000000083
:107E0000112484B714BE81FFF0D085E080938100F7
:107E100082E08093C00088E18093C10086E0809377
:107E2000C20080E18093C4008EE0C9D0259A86E02C
:107E300020E33CEF91E0309385002093840096BBD3
:107E4000B09BFECF1D9AA8958150A9F7CC24DD24C4
:107E500088248394B5E0AB2EA1E19A2EF3E0BF2EE7
:107E6000A2D0813461F49FD0082FAFD0023811F036
:107E7000013811F484E001C083E08DD089C08234E0
:107E800011F484E103C0853419F485E0A6D080C0E4
:107E9000853579F488D0E82EFF2485D0082F10E0AE
:107EA000102F00270E291F29000F111F8ED06801E7
:107EB0006FC0863521F484E090D080E0DECF843638
:107EC00009F040C070D06FD0082F6DD080E0C81688
:107ED00080E7D80618F4F601B7BEE895C0E0D1E017
:107EE00062D089930C17E1F7F0E0CF16F0E7DF06D8
:107EF00018F0F601B7BEE89568D007B600FCFDCFD4
:107F0000A601A0E0B1E02C9130E011968C91119780
:107F100090E0982F8827822B932B1296FA010C0160
:107F200087BEE89511244E5F5F4FF1E0A038BF0790
:107F300051F7F601A7BEE89507B600FCFDCF97BE46
:107F4000E89526C08437B1F42ED02DD0F82E2BD052
:107F50003CD0F601EF2C8F010F5F1F4F84911BD097
:107F6000EA94F801C1F70894C11CD11CFA94CF0C13
:107F7000D11C0EC0853739F428D08EE10CD085E9AC
:107F80000AD08FE07ACF813511F488E018D01DD067
:107F900080E101D065CF982F8091C00085FFFCCF94
:107FA0009093C60008958091C00087FFFCCF809118
:107FB000C00084FD01C0A8958091C6000895E0E648
:107FC000F0E098E1908380830895EDDF803219F02E
:107FD00088E0F5DFFFCF84E1DECF1F93182FE3DFCA
:107FE0001150E9F7F2DF1F91089580E0E8DFEE27F6
:047FF000FF270994CA
:027FFE00040479
:00000001FF
